HIERARCHY
ROOT Hips
{
 OFFSET 0.000000 0.000000 0.000000
 CHANNELS 6 Xposition Yposition Zposition Yrotation Xrotation Zrotation
 JOINT Chest
 {
  OFFSET 0.000000 9.585900 0.002600
  CHANNELS 3 Yrotation Xrotation Zrotation
  JOINT Chest2
  {
   OFFSET 0.000000 9.601200 -0.005300
   CHANNELS 3 Yrotation Xrotation Zrotation
   JOINT Chest3
   {
    OFFSET 0.000000 9.561800 0.000000
    CHANNELS 3 Yrotation Xrotation Zrotation
    JOINT Chest4
    {
     OFFSET 0.000000 9.552100 0.000000
     CHANNELS 3 Yrotation Xrotation Zrotation
     JOINT Neck
     {
      OFFSET 0.000000 14.453000 0.000000
      CHANNELS 3 Yrotation Xrotation Zrotation
      JOINT Head
      {
       OFFSET 0.000000 8.936500 -0.011300
       CHANNELS 3 Yrotation Xrotation Zrotation
       End Site
       {
        OFFSET 0.000000 17.073600 -0.006000
       }
      }
     }
     JOINT RightCollar
     {
      OFFSET -2.921100 9.558500 0.000000
      CHANNELS 3 Yrotation Xrotation Zrotation
      JOINT RightShoulder
      {
       OFFSET -13.519700 0.000000 0.000000
       CHANNELS 3 Yrotation Xrotation Zrotation
       JOINT RightElbow
       {
        OFFSET 0.000000 -29.696600 0.000000
        CHANNELS 3 Yrotation Xrotation Zrotation
        JOINT RightWrist
        {
         OFFSET 0.000000 -24.004700 0.000000
         CHANNELS 3 Yrotation Xrotation Zrotation
         End Site
         {
          OFFSET 0.000000 -17.728500 0.000000
         }
        }
       }
      }
     }
     JOINT LeftCollar
     {
      OFFSET 2.921100 9.558500 0.000000
      CHANNELS 3 Yrotation Xrotation Zrotation
      JOINT LeftShoulder
      {
       OFFSET 13.519700 0.000000 0.000000
       CHANNELS 3 Yrotation Xrotation Zrotation
       JOINT LeftElbow
       {
        OFFSET 0.000000 -29.696600 0.000000
        CHANNELS 3 Yrotation Xrotation Zrotation
        JOINT LeftWrist
        {
         OFFSET 0.000000 -24.004700 0.000000
         CHANNELS 3 Yrotation Xrotation Zrotation
         End Site
         {
          OFFSET 0.000000 -17.728500 0.000000
         }
        }
       }
      }
     }
    }
   }
  }
 }
 JOINT RightHip
 {
  OFFSET -7.771700 -0.012900 -0.001300
  CHANNELS 3 Yrotation Xrotation Zrotation
  JOINT RightKnee
  {
   OFFSET 0.000000 -40.869800 0.001200
   CHANNELS 3 Yrotation Xrotation Zrotation
   JOINT RightAnkle
   {
    OFFSET 0.000000 -39.717900 0.002100
    CHANNELS 3 Yrotation Xrotation Zrotation
    JOINT RightToe
    {
     OFFSET 0.000000 -4.965400 11.033500
     CHANNELS 3 Yrotation Xrotation Zrotation
     End Site
     {
      OFFSET 0.000000 -1.423100 5.872300
     }
    }
   }
  }
 }
 JOINT LeftHip
 {
  OFFSET 7.771700 -0.012900 -0.001300
  CHANNELS 3 Yrotation Xrotation Zrotation
  JOINT LeftKnee
  {
   OFFSET 0.000000 -40.869800 0.001200
   CHANNELS 3 Yrotation Xrotation Zrotation
   JOINT LeftAnkle
   {
    OFFSET 0.000000 -39.717900 0.002100
    CHANNELS 3 Yrotation Xrotation Zrotation
    JOINT LeftToe
    {
     OFFSET 0.000000 -4.965400 11.033500
     CHANNELS 3 Yrotation Xrotation Zrotation
     End Site
     {
      OFFSET 0.000000 -1.423100 5.872300
     }
    }
   }
  }
 }
}
MOTION
Frames: 5
Frame Time: 0.008333
0.000000 85.388000 0.000000 0.000000 -5.767877 0.000000 0.000000 11.653817 0.000000 0.000000 -5.885947 0.000000 0.000000 -0.000000 0.000000 0.000000 -0.000000 0.000000 0.000000 12.528835 0.000000 0.000000 0.711642 0.000000 0.000000 -0.000000 0.000000 0.000000 0.000000 -90.000000 0.000000 -2.309062 0.000000 0.000000 2.309062 0.000000 0.000000 -0.000000 0.000000 0.000000 -0.000000 90.000000 0.000000 -2.309062 0.000000 0.000000 2.309062 0.000000 0.000000 8.520406 0.000000 0.000000 1.905762 0.000000 -0.000000 -4.658285 0.000000 0.000000 -0.000000 0.000000 0.000000 8.520406 0.000000 0.000000 1.905762 0.000000 -0.000000 -4.658285 0.000000 0.000000 -0.000000 0.000000
-40.689761 52.849239 -6.232837 -177.430099 -16.766109 -1.836363 -1.096702 16.000107 1.040674 -0.125109 1.576285 0.126155 -0.200119 2.634289 0.208088 -0.967135 14.193865 1.009484 -1.222920 23.144269 5.331250 -2.545420 -0.651930 6.061413 -0.865901 3.350162 1.152022 -15.762241 -8.385052 0.153862 -76.286754 -27.404957 98.674541 -31.894766 -29.837572 -19.949292 -7.030626 1.050277 -2.130799 12.425845 -13.357519 7.469670 68.195912 -35.450266 -109.962327 22.071505 -24.739862 8.801764 1.473986 -61.787817 10.316774 -176.341007 86.176219 -178.493235 -12.720395 -22.275092 14.170343 -0.018052 0.028443 0.008557 5.182924 -60.210783 -4.258348 119.557618 77.826058 117.479057 -6.712409 -19.911786 -0.840955 0.037597 0.111681 0.004006
-40.688744 52.850620 -6.238558 -177.447739 -16.753239 -1.863856 -1.074651 15.991358 1.075383 -0.139249 1.584919 0.129403 -0.200828 2.629437 0.209466 -0.984832 14.178155 1.036746 -1.150219 23.078743 5.295021 -2.466785 -0.737980 6.030311 -0.919859 3.327520 1.093425 -15.836435 -8.382408 0.167328 -77.059461 -28.445302 99.099784 -31.399818 -29.942549 -20.291790 -7.016257 0.998688 -2.099373 12.371802 -13.258650 7.522769 68.795586 -36.067992 -110.401135 21.636475 -24.423863 8.856070 1.482743 -61.802170 10.294795 -176.991113 86.173199 -179.154339 -12.433452 -22.301479 14.132044 -0.004569 -0.002497 -0.007591 5.161416 -60.222517 -4.213717 119.649485 77.833592 117.578593 -6.677214 -19.900711 -0.837217 0.023426 0.082250 -0.003474
-40.690305 52.851070 -6.242787 -177.460198 -16.723508 -1.878790 -1.076736 15.977124 1.093810 -0.141157 1.583084 0.128917 -0.191100 2.619919 0.208590 -1.003379 14.169400 1.045630 -1.077385 23.005680 5.286876 -2.385125 -0.828917 6.002269 -0.982458 3.290756 1.055014 -15.883840 -8.386814 0.147563 -77.865883 -29.632078 99.560262 -30.914367 -29.877107 -20.570123 -7.017922 0.940718 -2.048970 12.325790 -13.146338 7.580669 69.422400 -36.688507 -110.857246 21.186560 -24.110768 8.916055 1.510080 -61.828356 10.221804 -177.995822 86.169981 179.801078 -11.934353 -22.344615 14.060688 0.017511 -0.041021 -0.026752 5.160997 -60.250459 -4.200184 119.679345 77.831575 117.616155 -6.671310 -19.910561 -0.832117 0.025155 0.081694 -0.007035
-40.698409 52.850989 -6.247485 -177.478007 -16.692622 -1.852329 -1.086054 15.961956 1.069536 -0.132576 1.573789 0.127524 -0.191335 2.616724 0.209547 -1.025861 14.163011 1.050772 -1.003153 22.928442 5.282781 -2.302947 -0.924506 5.978389 -1.045623 3.241143 1.014969 -15.915700 -8.401168 0.098015 -78.684206 -30.926945 100.047242 -30.453741 -29.680599 -20.749317 -7.016438 0.883017 -2.014784 12.278517 -13.029706 7.657164 70.065921 -37.311063 -111.331809 20.726834 -23.809901 8.981527 1.608180 -61.861425 10.151473 -177.921288 86.168860 179.906913 -11.999311 -22.338763 14.067546 0.013138 -0.039693 -0.019250 5.245448 -60.269647 -4.283634 119.660023 77.825306 117.608084 -6.669313 -19.960024 -0.828034 0.023277 0.123328 -0.005866
